<?xml version="1.0" encoding="UTF-8"?><svg id="_イヤー_2" xmlns="http://www.w3.org/2000/svg" viewBox="0 0 566.93 317.44"><g><path d="M254.88,115.31l-13.94-19.18-13.74,19.18h-7.63l17.46-23.82-16.39-22.63h7.57l13.01,17.85,12.87-17.85h7.23l-16.39,22.43,17.59,24.03h-7.63Z"/><path d="M229.1,180.58c-3.25-1.08-5.81-2.49-7.66-4.21l2.46-5.18c1.77,1.59,4.03,2.89,6.8,3.88,2.76,.99,5.61,1.49,8.53,1.49,3.85,0,6.72-.65,8.63-1.96s2.85-3.04,2.85-5.21c0-1.59-.52-2.89-1.56-3.88s-2.32-1.76-3.85-2.29c-1.53-.53-3.68-1.13-6.47-1.79-3.5-.84-6.32-1.68-8.46-2.52-2.15-.84-3.98-2.13-5.51-3.88-1.53-1.75-2.29-4.1-2.29-7.07,0-2.48,.65-4.71,1.96-6.7,1.31-1.99,3.29-3.58,5.94-4.78s5.95-1.79,9.89-1.79c2.74,0,5.44,.36,8.09,1.06s4.94,1.72,6.84,3.05l-2.19,5.31c-1.95-1.24-4.03-2.18-6.24-2.82-2.21-.64-4.38-.96-6.5-.96-3.76,0-6.58,.69-8.46,2.06-1.88,1.37-2.82,3.14-2.82,5.31,0,1.59,.53,2.89,1.59,3.88,1.06,1,2.38,1.77,3.95,2.32,1.57,.55,3.71,1.14,6.41,1.76,3.49,.84,6.3,1.68,8.43,2.52,2.13,.84,3.95,2.12,5.48,3.85,1.53,1.72,2.29,4.05,2.29,6.97,0,2.43-.66,4.66-1.99,6.67-1.33,2.01-3.34,3.61-6.04,4.78-2.7,1.17-6.02,1.76-9.96,1.76-3.5,0-6.87-.54-10.12-1.63Z"/><path d="M304.53,135.22v46.46h-6.64v-20.71h-26.68v20.71h-6.64v-46.46h6.64v19.97h26.68v-19.97h6.64Z"/><path d="M324.44,179.13c-3.76-2.06-6.71-4.9-8.86-8.53-2.15-3.63-3.22-7.68-3.22-12.15s1.07-8.52,3.22-12.15c2.15-3.63,5.1-6.47,8.86-8.53,3.76-2.05,7.98-3.09,12.67-3.09s8.85,1.03,12.61,3.09c3.76,2.06,6.7,4.89,8.82,8.5,2.13,3.61,3.19,7.66,3.19,12.18s-1.06,8.57-3.19,12.18c-2.12,3.61-5.07,6.44-8.82,8.5-3.76,2.05-7.97,3.09-12.61,3.09s-8.91-1.03-12.67-3.09Zm21.87-5.15c2.72-1.55,4.87-3.68,6.44-6.4,1.57-2.72,2.36-5.76,2.36-9.13s-.78-6.4-2.36-9.13c-1.57-2.72-3.72-4.85-6.44-6.4-2.72-1.55-5.78-2.32-9.19-2.32s-6.49,.77-9.26,2.32-4.93,3.68-6.5,6.4c-1.57,2.72-2.36,5.76-2.36,9.13s.79,6.4,2.36,9.13c1.57,2.72,3.74,4.86,6.5,6.4,2.76,1.55,5.85,2.32,9.26,2.32s6.47-.77,9.19-2.32Z"/><path d="M401.79,139.54c3.45,2.88,5.18,6.84,5.18,11.88s-1.72,9.01-5.18,11.88c-3.45,2.88-8.19,4.31-14.2,4.31h-11.48v14.07h-6.64v-46.46h18.12c6.02,0,10.75,1.44,14.2,4.31Zm-4.78,19.61c2.21-1.79,3.32-4.37,3.32-7.73s-1.11-5.94-3.32-7.73-5.42-2.69-9.62-2.69h-11.28v20.84h11.28c4.2,0,7.41-.89,9.62-2.69Z"/><path d="M446.33,139.54c3.45,2.88,5.18,6.84,5.18,11.88s-1.73,9.01-5.18,11.88c-3.45,2.88-8.19,4.31-14.2,4.31h-11.48v14.07h-6.64v-46.46h18.12c6.01,0,10.75,1.44,14.2,4.31Zm-4.78,19.61c2.21-1.79,3.32-4.37,3.32-7.73s-1.11-5.94-3.32-7.73c-2.21-1.79-5.42-2.69-9.62-2.69h-11.28v20.84h11.28c4.2,0,7.41-.89,9.62-2.69Z"/><path d="M458.69,135.22h6.64v46.46h-6.64v-46.46Z"/><path d="M516.35,135.22v46.46h-5.44l-27.87-34.64v34.64h-6.64v-46.46h5.44l27.88,34.64v-34.64h6.64Z"/><path d="M560.16,158.18h6.37v18.12c-2.3,1.9-4.98,3.36-8.03,4.38s-6.24,1.53-9.56,1.53c-4.69,0-8.92-1.03-12.68-3.09-3.76-2.06-6.71-4.89-8.86-8.5s-3.22-7.66-3.22-12.18,1.07-8.58,3.22-12.21c2.15-3.63,5.11-6.46,8.89-8.5,3.78-2.04,8.04-3.05,12.78-3.05,3.72,0,7.09,.61,10.12,1.82,3.03,1.22,5.61,3,7.73,5.34l-4.12,4.12c-3.72-3.58-8.21-5.38-13.47-5.38-3.54,0-6.71,.76-9.52,2.29s-5.01,3.65-6.6,6.37c-1.59,2.72-2.39,5.78-2.39,9.19s.8,6.4,2.39,9.13c1.59,2.72,3.79,4.86,6.6,6.4,2.81,1.55,5.96,2.32,9.46,2.32,4.16,0,7.79-.99,10.89-2.98v-15.13Z"/><path d="M229.1,246.95c-3.25-1.08-5.81-2.49-7.66-4.21l2.46-5.18c1.77,1.59,4.03,2.89,6.8,3.88,2.76,.99,5.61,1.49,8.53,1.49,3.85,0,6.72-.65,8.63-1.96s2.85-3.04,2.85-5.21c0-1.59-.52-2.89-1.56-3.88s-2.32-1.76-3.85-2.29c-1.53-.53-3.68-1.13-6.47-1.79-3.5-.84-6.32-1.68-8.46-2.52-2.15-.84-3.98-2.13-5.51-3.88-1.53-1.75-2.29-4.1-2.29-7.07,0-2.48,.65-4.71,1.96-6.7,1.31-1.99,3.29-3.58,5.94-4.78s5.95-1.79,9.89-1.79c2.74,0,5.44,.36,8.09,1.06s4.94,1.72,6.84,3.05l-2.19,5.31c-1.95-1.24-4.03-2.18-6.24-2.82-2.21-.64-4.38-.96-6.5-.96-3.76,0-6.58,.69-8.46,2.06-1.88,1.37-2.82,3.14-2.82,5.31,0,1.59,.53,2.89,1.59,3.88,1.06,1,2.38,1.77,3.95,2.32,1.57,.55,3.71,1.14,6.41,1.76,3.49,.84,6.3,1.68,8.43,2.52,2.13,.84,3.95,2.12,5.48,3.85,1.53,1.72,2.29,4.05,2.29,6.97,0,2.43-.66,4.66-1.99,6.67-1.33,2.01-3.34,3.61-6.04,4.78-2.7,1.18-6.02,1.76-9.96,1.76-3.5,0-6.87-.54-10.12-1.63Z"/><path d="M274.99,207.36h-15.93v-5.77h38.43v5.77h-15.93v40.69h-6.57v-40.69Z"/><path d="M333.46,248.05l-10.02-14.27c-1.24,.09-2.21,.13-2.92,.13h-11.48v14.14h-6.64v-46.46h18.12c6.02,0,10.75,1.44,14.2,4.31,3.45,2.88,5.18,6.84,5.18,11.88,0,3.58-.88,6.64-2.65,9.16-1.77,2.52-4.29,4.36-7.57,5.51l11.02,15.6h-7.23Zm-3.52-22.5c2.21-1.81,3.32-4.4,3.32-7.76s-1.11-5.94-3.32-7.73-5.42-2.69-9.62-2.69h-11.28v20.9h11.28c4.2,0,7.41-.91,9.62-2.72Z"/><path d="M381.91,242.27v5.78h-33.71v-46.46h32.78v5.77h-26.15v14.27h23.29v5.64h-23.29v15h27.07Z"/><path d="M422.87,242.27v5.78h-33.71v-46.46h32.78v5.77h-26.15v14.27h23.29v5.64h-23.29v15h27.07Z"/><path d="M441.71,207.36h-15.93v-5.77h38.43v5.77h-15.93v40.69h-6.57v-40.69Z"/></g><path d="M185.35,85.36c-3.46-8.03-9.9-14.47-17.93-17.93-4.14-1.78-8.69-2.78-13.47-2.78H34.17C15.33,64.65,0,79.98,0,98.83v119.78c0,4.78,.99,9.33,2.78,13.47,3.46,8.03,9.9,14.47,17.93,17.93,4.14,1.78,8.69,2.78,13.47,2.78h119.78c18.84,0,34.17-15.33,34.17-34.17V98.83c0-4.78-.99-9.33-2.78-13.47Zm-31.39-12.25c2.37,0,4.66,.35,6.84,.95l-51.5,51.5-52.45-52.45h97.11ZM8.45,218.61V98.83c0-14.18,11.54-25.72,25.72-25.72h10.72l58.43,58.43L9.4,225.45c-.6-2.18-.95-4.47-.95-6.84Zm171.22,0c0,14.18-11.54,25.72-25.72,25.72H34.17c-2.37,0-4.66-.35-6.84-.95l93.92-93.92,58.43,58.43v10.72Zm-52.45-75.13l51.5-51.5c.6,2.18,.95,4.47,.95,6.84v97.11l-52.45-52.45Z"/></svg>