<?xml version="1.0" encoding="UTF-8"?><svg id="_イヤー_2" xmlns="http://www.w3.org/2000/svg" viewBox="0 0 200 200"><defs><style>.cls-1{fill:#fff;}</style></defs><g id="_イヤー_1-2"><path class="cls-1" d="M195.88,23.18c-4.03-8.3-10.75-15.03-19.06-19.06-5.39-2.61-11.41-4.12-17.79-4.12H40.97c-.71,0-1.41,.07-2.12,.11C17.25,1.22,0,19.09,0,40.97v118.06c0,6.38,1.51,12.4,4.12,17.79,4.03,8.3,10.75,15.03,19.06,19.06,5.39,2.61,11.41,4.12,17.79,4.12h118.06c21.88,0,39.75-17.25,40.86-38.85,.04-.71,.11-1.4,.11-2.12V40.97c0-6.38-1.51-12.4-4.12-17.79Zm-36.85-14.19c3.85,0,7.53,.72,10.95,1.97l-53.79,53.79L60.43,8.98h98.6ZM8.98,159.03V40.97c0-17.64,14.35-31.98,31.98-31.98h6.76l62.11,62.11L10.96,169.98c-1.25-3.42-1.97-7.1-1.97-10.95Zm182.03,0c0,17.64-14.35,31.98-31.98,31.98H40.97c-3.85,0-7.53-.72-10.95-1.97l98.89-98.89,62.11,62.11v6.76Zm-55.76-75.23l53.79-53.79c1.25,3.42,1.97,7.1,1.97,10.95v98.6l-55.76-55.76Z"/></g></svg>