<svg xmlns="http://www.w3.org/2000/svg" id="_イヤー_3" viewBox="0 133.9 566.93 49.63"><g><path d="M92.96,176.05l-10.4-14.31-10.25,14.31h-5.69l13.02-17.78-12.23-16.89h5.65l9.7,13.32,9.61-13.32h5.4l-12.23,16.74,13.12,17.93h-5.69Z"/><path d="M117.89,175.23c-2.43-.81-4.33-1.86-5.72-3.15l1.83-3.86c1.32,1.19,3.01,2.15,5.08,2.9,2.06,.74,4.18,1.11,6.36,1.11,2.87,0,5.02-.49,6.44-1.46,1.42-.97,2.13-2.27,2.13-3.89,0-1.19-.39-2.15-1.16-2.9s-1.73-1.31-2.87-1.71c-1.14-.4-2.75-.84-4.83-1.34-2.61-.63-4.71-1.25-6.31-1.88-1.6-.63-2.97-1.59-4.11-2.9-1.14-1.3-1.71-3.06-1.71-5.27,0-1.85,.49-3.51,1.46-5,.97-1.49,2.45-2.68,4.43-3.57,1.98-.89,4.44-1.34,7.38-1.34,2.05,0,4.06,.27,6.04,.79,1.98,.53,3.68,1.29,5.1,2.28l-1.63,3.96c-1.45-.92-3.01-1.62-4.66-2.1-1.65-.48-3.27-.72-4.85-.72-2.8,0-4.91,.51-6.31,1.54-1.4,1.02-2.1,2.34-2.1,3.96,0,1.19,.4,2.15,1.19,2.9,.79,.74,1.77,1.32,2.95,1.73,1.17,.41,2.76,.85,4.78,1.31,2.61,.63,4.7,1.26,6.29,1.88,1.58,.63,2.95,1.58,4.09,2.87,1.14,1.29,1.71,3.02,1.71,5.2,0,1.82-.5,3.48-1.49,4.98-.99,1.5-2.49,2.69-4.51,3.56-2.01,.88-4.49,1.31-7.43,1.31-2.61,0-5.12-.4-7.55-1.21Z"/><path d="M174.08,141.39v34.66h-4.95v-15.45h-19.91v15.45h-4.95v-34.66h4.95v14.91h19.91v-14.91h4.95Z"/><path d="M188.85,174.14c-2.81-1.53-5.01-3.66-6.61-6.36-1.6-2.71-2.4-5.73-2.4-9.06s.8-6.35,2.4-9.06c1.6-2.71,3.8-4.83,6.61-6.36,2.81-1.54,5.96-2.3,9.46-2.3s6.6,.77,9.41,2.3c2.8,1.53,5,3.65,6.59,6.34,1.58,2.69,2.38,5.72,2.38,9.09s-.79,6.4-2.38,9.09c-1.59,2.69-3.78,4.8-6.59,6.34-2.81,1.54-5.94,2.3-9.41,2.3s-6.65-.77-9.46-2.3Zm16.32-3.84c2.03-1.15,3.63-2.75,4.8-4.78,1.17-2.03,1.76-4.3,1.76-6.81s-.59-4.78-1.76-6.81c-1.17-2.03-2.77-3.62-4.8-4.78-2.03-1.16-4.32-1.73-6.86-1.73s-4.85,.58-6.91,1.73c-2.06,1.15-3.68,2.75-4.85,4.78-1.17,2.03-1.76,4.3-1.76,6.81s.59,4.78,1.76,6.81c1.17,2.03,2.79,3.62,4.85,4.78,2.06,1.16,4.36,1.73,6.91,1.73s4.83-.58,6.86-1.73Z"/><path d="M246.49,144.61c2.57,2.15,3.86,5.1,3.86,8.86s-1.29,6.72-3.86,8.86c-2.57,2.15-6.11,3.22-10.6,3.22h-8.57v10.5h-4.95v-34.66h13.52c4.49,0,8.02,1.07,10.6,3.22Zm-3.56,14.63c1.65-1.34,2.48-3.26,2.48-5.77s-.83-4.43-2.48-5.77c-1.65-1.34-4.04-2.01-7.18-2.01h-8.42v15.55h8.42c3.14,0,5.53-.67,7.18-2.01Z"/><path d="M279.63,144.61c2.58,2.15,3.86,5.1,3.86,8.86s-1.29,6.72-3.86,8.86c-2.57,2.15-6.11,3.22-10.6,3.22h-8.57v10.5h-4.95v-34.66h13.52c4.49,0,8.02,1.07,10.6,3.22Zm-3.56,14.63c1.65-1.34,2.48-3.26,2.48-5.77s-.83-4.43-2.48-5.77c-1.65-1.34-4.04-2.01-7.18-2.01h-8.42v15.55h8.42c3.14,0,5.53-.67,7.18-2.01Z"/><path d="M288.77,141.39h4.95v34.66h-4.95v-34.66Z"/><path d="M331.71,141.39v34.66h-4.06l-20.8-25.85v25.85h-4.95v-34.66h4.06l20.8,25.85v-25.85h4.95Z"/><path d="M364.32,158.52h4.75v13.52c-1.72,1.42-3.71,2.51-5.99,3.27-2.28,.76-4.66,1.14-7.13,1.14-3.5,0-6.65-.77-9.46-2.3-2.81-1.53-5.01-3.65-6.61-6.34s-2.4-5.72-2.4-9.09,.8-6.4,2.4-9.11c1.6-2.71,3.81-4.82,6.64-6.34,2.82-1.52,6-2.28,9.53-2.28,2.77,0,5.29,.45,7.55,1.36,2.26,.91,4.18,2.24,5.77,3.99l-3.07,3.07c-2.77-2.67-6.12-4.01-10.05-4.01-2.64,0-5.01,.57-7.11,1.71-2.1,1.14-3.74,2.72-4.93,4.75-1.19,2.03-1.78,4.32-1.78,6.86s.59,4.78,1.78,6.81c1.19,2.03,2.83,3.62,4.93,4.78,2.1,1.16,4.45,1.73,7.06,1.73,3.1,0,5.81-.74,8.12-2.23v-11.29Z"/><path d="M391.92,175.23c-2.43-.81-4.33-1.86-5.72-3.15l1.83-3.86c1.32,1.19,3.01,2.15,5.08,2.9,2.06,.74,4.18,1.11,6.36,1.11,2.87,0,5.02-.49,6.44-1.46,1.42-.97,2.13-2.27,2.13-3.89,0-1.19-.39-2.15-1.16-2.9-.78-.74-1.73-1.31-2.87-1.71s-2.75-.84-4.83-1.34c-2.61-.63-4.71-1.25-6.31-1.88-1.6-.63-2.97-1.59-4.11-2.9s-1.71-3.06-1.71-5.27c0-1.85,.49-3.51,1.46-5,.97-1.49,2.45-2.68,4.43-3.57,1.98-.89,4.44-1.34,7.38-1.34,2.05,0,4.06,.27,6.04,.79,1.98,.53,3.68,1.29,5.1,2.28l-1.63,3.96c-1.45-.92-3-1.62-4.66-2.1-1.65-.48-3.27-.72-4.85-.72-2.81,0-4.91,.51-6.31,1.54-1.4,1.02-2.1,2.34-2.1,3.96,0,1.19,.39,2.15,1.19,2.9s1.77,1.32,2.95,1.73c1.17,.41,2.76,.85,4.78,1.31,2.61,.63,4.7,1.26,6.29,1.88s2.95,1.58,4.09,2.87c1.14,1.29,1.71,3.02,1.71,5.2,0,1.82-.5,3.48-1.49,4.98-.99,1.5-2.49,2.69-4.51,3.56-2.01,.88-4.49,1.31-7.43,1.31-2.61,0-5.12-.4-7.55-1.21Z"/><path d="M426.08,145.69h-11.88v-4.31h28.67v4.31h-11.88v30.36h-4.9v-30.36Z"/><path d="M469.63,176.05l-7.48-10.65c-.92,.07-1.65,.1-2.18,.1h-8.57v10.55h-4.95v-34.66h13.52c4.49,0,8.02,1.07,10.6,3.22,2.57,2.15,3.86,5.1,3.86,8.86,0,2.68-.66,4.95-1.98,6.83-1.32,1.88-3.2,3.25-5.64,4.11l8.22,11.64h-5.4Zm-2.62-16.79c1.65-1.35,2.48-3.28,2.48-5.8s-.83-4.43-2.48-5.77c-1.65-1.34-4.04-2.01-7.18-2.01h-8.42v15.6h8.42c3.14,0,5.53-.68,7.18-2.03Z"/><path d="M505.69,171.74v4.31h-25.16v-34.66h24.46v4.31h-19.51v10.65h17.38v4.21h-17.38v11.19h20.2Z"/><path d="M536.16,171.74v4.31h-25.16v-34.66h24.46v4.31h-19.51v10.65h17.38v4.21h-17.38v11.19h20.2Z"/><path d="M550.14,145.69h-11.88v-4.31h28.67v4.31h-11.88v30.36h-4.9v-30.36Z"/></g><path d="M48.91,139.36c-.91-2.12-2.61-3.82-4.73-4.73-1.09-.47-2.29-.73-3.55-.73H9.02C4.04,133.9,0,137.94,0,142.92v31.61C0,175.78,.26,176.98,.73,178.07c.91,2.12,2.61,3.82,4.73,4.73,1.09,.47,2.29,.73,3.55,.73h31.61c4.97,0,9.02-4.04,9.02-9.02v-31.61c0-1.26-.26-2.46-.73-3.55Zm-8.28-3.23c.63,0,1.23,.09,1.8,.25l-13.59,13.59-13.84-13.84h25.62ZM2.23,174.52v-31.61c0-3.74,3.04-6.79,6.79-6.79h2.83l15.42,15.42L2.48,176.33c-.16-.58-.25-1.18-.25-1.8Zm45.18,0c0,3.74-3.04,6.79-6.79,6.79H9.02c-.63,0-1.23-.09-1.8-.25l24.78-24.78,15.42,15.42v2.83Zm-13.84-19.82l13.59-13.59c.16,.58,.25,1.18,.25,1.8v25.62l-13.84-13.84Z"/></svg>